<svg width="89" height="100" viewBox="0 0 89 100" fill="none" xmlns="http://www.w3.org/2000/svg">
<path d="M44.2267 99.3811C20.0798 99.3811 0.434616 83.0289 0.434616 62.9292C0.434616 55.3363 3.20272 47.9883 8.43856 41.6824C8.89249 41.1362 9.01791 40.3937 8.77873 39.7346L23.3258 0.370789L32.5641 25.3694C32.9013 26.2831 33.8461 26.8157 34.8035 26.6349C40.9578 25.4628 47.4981 25.4589 53.6679 26.6388C54.6186 26.8177 55.571 26.287 55.9073 25.3733L65.1476 0.370789L79.6851 39.7056C79.4323 40.3723 79.5549 41.1286 80.0147 41.6826C85.2505 47.9905 88.0186 55.3366 88.0186 62.9294C88.0189 83.0289 68.3737 99.3811 44.2267 99.3811Z" fill="#D8D8D8"/>
</svg>
