<svg width="96" height="112" viewBox="0 0 96 112" fill="none" xmlns="http://www.w3.org/2000/svg">
<path d="M88.0572 48.3643C88.0523 48.1466 88.0116 47.929 87.9348 47.721L71.015 1.93818C70.7263 1.15684 69.9808 0.637817 69.148 0.637817C68.3152 0.637817 67.5696 1.15684 67.2809 1.9384L56.7478 30.4378C51.1484 29.5514 45.3176 29.5553 39.7241 30.4339L29.1932 1.9384C28.9045 1.15684 28.1588 0.637817 27.326 0.637817C26.4932 0.637817 25.7475 1.15684 25.4588 1.9384L8.53921 47.721C8.46546 47.9212 8.42459 48.1293 8.41681 48.3371C3.2013 55.096 0.453735 62.8755 0.453735 70.929C0.453519 93.2237 21.885 111.362 48.2267 111.362C74.5685 111.362 96 93.2237 96 70.9292C96 62.8872 93.2591 55.1174 88.0572 48.3643Z" fill="#333333"/>
</svg>
